<?xml version="1.0" standalone="no"?>
<!DOCTYPE svg PUBLIC "-//W3C//DTD SVG 20010904//EN"
 "http://www.w3.org/TR/2001/REC-SVG-20010904/DTD/svg10.dtd">
<svg version="1.0" xmlns="http://www.w3.org/2000/svg"
 width="198.000000pt" height="254.000000pt" viewBox="0 0 198.000000 254.000000"
 preserveAspectRatio="xMidYMid meet">

<g transform="translate(0.000000,254.000000) scale(0.100000,-0.100000)"
fill="#000000" stroke="none">
<path d="M0 1270 l0 -1270 990 0 990 0 0 1270 0 1270 -710 0 c-500 0 -710 -3
-710 -11 0 -6 -14 -24 -30 -41 -25 -24 -37 -29 -63 -25 -70 10 -139 35 -153
56 -14 20 -23 21 -165 21 l-149 0 0 -1270z m807 863 c-3 -10 -5 -4 -5 12 0 17
2 24 5 18 2 -7 2 -21 0 -30z m128 -33 c3 -5 -1 -10 -10 -10 -9 0 -13 5 -10 10
3 6 8 10 10 10 2 0 7 -4 10 -10z m150 -10 c3 -5 -1 -10 -9 -10 -9 0 -16 5 -16
10 0 6 4 10 9 10 6 0 13 -4 16 -10z m-290 -87 c-4 -30 -9 -52 -12 -49 -3 2 -2
33 2 68 5 35 10 57 13 50 2 -7 1 -38 -3 -69z m170 18 c3 -5 1 -12 -5 -16 -5
-3 -10 1 -10 9 0 18 6 21 15 7z m136 -31 c11 0 17 -4 14 -10 -3 -5 -15 -10
-26 -10 -11 0 -17 5 -14 10 3 6 0 11 -7 12 -7 0 -17 2 -23 3 -5 2 -14 3 -19 4
-5 0 -3 8 4 16 12 14 15 13 32 -5 10 -11 28 -20 39 -20z m-191 6 c0 -3 -4 -8
-10 -11 -5 -3 -10 -1 -10 4 0 6 5 11 10 11 6 0 10 -2 10 -4z m-127 -114 c-10
-10 -20 -17 -22 -16 -6 5 20 34 30 34 5 0 1 -8 -8 -18z m-316 -78 c-3 -3 -12
-4 -19 -1 -8 3 -5 6 6 6 11 1 17 -2 13 -5z m-14 -153 c2 -9 -1 -31 -5 -50 -7
-25 -12 -31 -18 -21 -6 9 -11 2 -16 -24 -4 -27 -9 -34 -15 -24 -9 14 -12 -3
-11 -69 0 -23 -4 -33 -15 -33 -10 0 -14 -6 -10 -20 4 -17 2 -18 -14 -9 -16 8
-21 5 -33 -23 -13 -31 -36 -157 -36 -196 0 -15 2 -15 10 -2 6 10 7 -3 3 -40
-6 -50 -20 -80 -38 -80 -4 0 -4 12 -1 28 4 15 11 61 16 102 18 160 29 204 56
227 19 17 28 39 35 85 13 88 16 99 38 134 20 33 47 41 54 15z m537 -110 c0
-17 -17 -13 -24 5 -10 27 -7 36 9 20 8 -8 15 -19 15 -25z m454 -33 c8 -29 13
-54 12 -56 -7 -7 -36 61 -36 85 0 36 7 28 24 -29z m-429 12 c3 -5 1 -10 -4
-10 -6 0 -11 5 -11 10 0 6 2 10 4 10 3 0 8 -4 11 -10z m459 -205 l6 -30 -15
25 c-8 14 -14 48 -14 75 l1 50 9 -45 c4 -25 10 -58 13 -75z m-1047 19 c3 -8 0
-21 -7 -27 -10 -10 -11 -7 -5 12 6 20 4 23 -9 18 -10 -4 -15 -3 -11 3 9 15 25
12 32 -6z m162 -139 c0 -5 -4 -3 -9 5 -5 8 -9 22 -9 30 0 16 17 -16 18 -35z
m956 -125 c10 -11 14 -20 9 -20 -23 1 -34 20 -39 66 -4 43 -3 44 4 12 4 -21
16 -47 26 -58z m-829 -77 c-10 -26 -18 -8 -9 23 5 21 8 24 11 11 2 -10 1 -25
-2 -34z m-469 15 c-3 -8 -6 -5 -6 6 -1 11 2 17 5 13 3 -3 4 -12 1 -19z m51
-23 c-3 -14 -1 -28 3 -31 5 -3 9 -17 9 -31 0 -22 3 -24 25 -19 14 4 25 3 25
-2 0 -5 -6 -9 -12 -9 -7 0 -21 -4 -30 -8 -15 -6 -18 -2 -18 25 0 18 -4 29 -10
25 -5 -3 -10 3 -10 14 0 10 -3 28 -6 38 -5 15 -4 15 5 3 9 -13 11 -13 11 3 0
9 3 17 6 17 4 0 4 -11 2 -25z m1373 -123 c6 -30 8 -57 5 -60 -3 -3 -6 5 -6 17
0 12 -4 20 -8 17 -5 -3 -9 15 -9 40 0 25 -4 49 -9 52 -5 4 -10 25 -11 47 l-3
40 15 -50 c8 -27 20 -74 26 -103z m-531 58 c0 -5 -4 -10 -10 -10 -5 0 -10 5
-10 10 0 6 5 10 10 10 6 0 10 -4 10 -10z m-52 -7 c-10 -2 -28 -2 -40 0 -13 2
-5 4 17 4 22 1 32 -1 23 -4z m-765 -51 c-10 -10 -20 -14 -22 -9 -2 5 3 13 10
18 24 15 30 10 12 -9z m-33 -2 c0 -5 -2 -10 -4 -10 -3 0 -8 5 -11 10 -3 6 -1
10 4 10 6 0 11 -4 11 -10z m-35 -38 c-8 -8 -25 10 -25 26 0 13 2 13 14 -4 8
-10 13 -21 11 -22z m152 -9 c-4 -3 -2 -12 5 -20 8 -11 7 -12 -6 -7 -9 3 -16 9
-16 13 0 9 11 21 18 21 3 0 2 -3 -1 -7z m-67 -38 c11 -13 10 -14 -4 -9 -12 5
-15 2 -10 -11 5 -13 3 -16 -7 -13 -19 6 -25 48 -6 48 8 0 20 -7 27 -15z m-62
-12 c-8 -10 -6 -13 7 -13 10 0 15 -6 12 -12 -2 -7 -1 -22 4 -33 7 -18 8 -18 9
5 2 22 3 22 11 -8 5 -18 14 -30 19 -27 6 4 10 -23 10 -69 0 -46 -4 -78 -12
-82 -6 -4 -8 -3 -4 4 6 10 -32 111 -70 185 -20 40 -18 63 5 63 15 0 17 -3 9
-13z m1411 -20 c-1 -34 -2 -35 -9 -13 -11 36 -11 50 0 50 6 0 10 -17 9 -37z
m18 -30 c-3 -10 -5 -4 -5 12 0 17 2 24 5 18 2 -7 2 -21 0 -30z m22 -86 c1 -10
-3 -15 -9 -12 -5 3 -10 21 -9 38 0 27 2 29 9 12 5 -11 9 -28 9 -38z m-1257
-50 c3 -13 1 -32 -3 -43 -5 -13 -8 -7 -8 24 -1 46 4 55 11 19z m-258 -2 c-7
-18 -20 -19 -30 -3 -4 7 -3 8 4 4 7 -4 12 -2 12 3 0 6 4 11 10 11 5 0 7 -7 4
-15z m1535 -12 c-1 -18 -3 -21 -6 -10 -2 9 -9 15 -14 12 -5 -3 -6 1 -3 9 10
26 24 18 23 -11z m-1333 -12 c-6 -9 -46 -22 -46 -15 0 3 10 9 23 14 29 11 29
11 23 1z m127 -41 c4 0 7 10 7 23 0 16 3 18 9 8 7 -11 10 -11 17 2 6 10 9 -15
9 -67 0 -80 -1 -83 -17 -63 -12 14 -18 16 -18 6 1 -19 25 -50 33 -42 14 13 6
-13 -9 -36 -13 -18 -18 -20 -25 -10 -4 8 -4 16 1 19 5 3 0 26 -12 50 -11 25
-22 59 -23 75 -4 40 -15 66 -26 59 -5 -3 -6 2 -3 11 5 13 10 11 28 -10 12 -14
25 -25 29 -25z m-293 8 c0 -6 -6 -5 -15 2 -8 7 -15 14 -15 16 0 2 7 1 15 -2 8
-4 15 -11 15 -16z m420 -49 c0 -40 -4 -59 -12 -59 -9 0 -8 -3 2 -10 12 -8 12
-10 -3 -16 -11 -4 -25 0 -37 11 -23 21 -28 44 -6 25 13 -10 13 -7 4 17 -9 23
-7 35 6 58 15 27 16 28 11 5 l-6 -25 15 25 c8 14 12 29 9 34 -4 5 -1 6 5 2 7
-4 12 -32 12 -67z m847 39 c-3 -8 -6 -5 -6 6 -1 11 2 17 5 13 3 -3 4 -12 1
-19z m166 -18 c3 -11 1 -18 -4 -14 -5 3 -9 12 -9 20 0 20 7 17 13 -6z m-1383
-41 c0 -18 -10 -8 -25 24 l-16 32 21 -24 c11 -13 20 -27 20 -32z m24 18 c3
-13 12 -24 21 -24 11 0 14 7 9 21 -4 15 -3 17 4 7 5 -7 14 -11 20 -7 10 6 62
-48 62 -65 0 -11 -34 22 -49 47 -10 18 -10 18 -11 -3 0 -32 10 -53 27 -53 8 0
12 -4 9 -9 -3 -5 1 -14 9 -21 12 -10 15 -10 15 0 0 9 5 8 18 -3 10 -10 21 -17
24 -17 8 0 68 -57 68 -64 0 -13 -20 -5 -47 20 -27 25 -46 17 -23 -10 6 -8 7
-17 2 -20 -5 -3 -19 8 -31 24 -19 27 -61 45 -46 20 4 -6 10 -8 15 -5 5 3 14
-4 20 -15 11 -20 9 -20 -39 5 -28 14 -52 30 -52 35 -1 6 -3 15 -4 20 -1 6 -3
13 -4 18 -1 4 -6 0 -11 -8 -7 -11 -8 -6 -5 18 2 18 -3 48 -11 67 -16 40 -17
45 -5 45 5 0 11 -10 15 -23z m1326 -7 c0 -16 5 -32 12 -36 7 -5 8 -3 3 5 -6
10 -3 11 11 3 11 -5 25 -7 32 -5 6 3 12 -2 12 -11 0 -10 -6 -13 -16 -9 -9 3
-20 0 -25 -8 -7 -11 -12 -10 -24 9 -9 12 -21 20 -26 17 -5 -4 -6 2 -2 12 4 12
-4 9 -25 -11 -18 -17 -32 -25 -32 -19 0 6 7 14 16 17 9 4 14 13 10 22 -7 18
11 40 36 41 14 1 18 -5 18 -27z m-934 -19 c-13 -13 -18 -13 -28 -2 -10 11 -10
12 0 7 6 -4 12 -3 12 2 0 5 7 9 15 9 14 0 14 -2 1 -16z m914 -41 c0 -5 -4 -10
-10 -10 -5 0 -10 5 -10 10 0 6 5 10 10 10 6 0 10 -4 10 -10z m-987 -46 c9 -9
-4 -35 -14 -28 -5 3 -9 12 -9 20 0 14 12 19 23 8z m1021 0 c9 -3 16 -14 16
-23 -1 -13 -3 -12 -12 4 -12 19 -13 18 -19 -10 l-7 -30 -1 33 c-1 34 -1 35 23
26z"/>
<path d="M538 493 c-10 -2 -18 -11 -18 -20 0 -13 2 -14 17 -2 9 8 14 9 11 4
-4 -6 -2 -17 3 -25 6 -11 8 -6 7 18 -1 17 -2 31 -3 31 0 -1 -8 -3 -17 -6z"/>
<path d="M337 405 c-6 -15 10 -32 20 -21 4 3 1 6 -5 6 -6 0 -9 7 -6 15 4 8 4
15 1 15 -3 0 -7 -7 -10 -15z"/>
<path d="M357 354 c-7 -8 3 -34 13 -34 9 0 8 26 -1 35 -3 3 -8 2 -12 -1z"/>
</g>
</svg>
