<?xml version="1.0" standalone="no"?>
<!DOCTYPE svg PUBLIC "-//W3C//DTD SVG 20010904//EN"
 "http://www.w3.org/TR/2001/REC-SVG-20010904/DTD/svg10.dtd">
<svg version="1.0" xmlns="http://www.w3.org/2000/svg"
 width="225.000000pt" height="225.000000pt" viewBox="0 0 225.000000 225.000000"
 preserveAspectRatio="xMidYMid meet">

<g transform="translate(0.000000,225.000000) scale(0.100000,-0.100000)"
fill="#000000" stroke="none">
<path d="M0 1125 l0 -1126 150 2 c83 0 150 5 150 10 0 5 5 9 11 9 5 0 7 -4 4
-10 -4 -7 231 -10 698 -10 614 0 706 2 717 15 15 18 7 19 -23 4 -19 -8 -18 -7
4 13 26 23 44 55 40 72 -1 5 6 18 16 29 l18 21 -30 -18 -30 -17 26 23 c15 13
35 30 45 38 11 8 27 21 36 28 14 11 16 10 11 -7 -3 -12 -11 -21 -19 -21 -7 0
-19 -10 -25 -22 l-12 -23 23 20 c13 11 20 14 15 6 -4 -8 -2 -17 6 -22 11 -6
11 -13 3 -26 -16 -26 -33 -27 -42 -2 -9 23 -9 23 -16 -4 -3 -15 -11 -27 -16
-27 -6 0 -10 -4 -10 -10 0 -15 28 0 33 18 4 15 5 15 6 0 1 -16 13 -18 89 -19
69 0 82 -2 62 -10 -14 -6 -43 -8 -65 -5 -53 7 -71 -4 -56 -33 11 -20 18 -21
221 -21 l210 0 0 1125 0 1125 -1125 0 -1125 0 0 -1125z m591 1026 c-7 -5 -11
-14 -7 -20 5 -7 1 -9 -9 -5 -11 5 -14 2 -8 -12 4 -11 3 -15 -4 -11 -6 4 -14 0
-17 -9 -3 -8 -2 -12 4 -9 5 3 19 8 30 10 16 3 18 1 8 -14 -6 -10 -8 -27 -4
-37 7 -18 9 -17 17 4 6 15 15 22 26 20 23 -5 18 -45 -8 -74 -15 -16 -16 -23
-7 -32 10 -10 10 -15 1 -20 -6 -4 -15 -20 -18 -35 -4 -15 -13 -27 -21 -27 -8
0 -14 -4 -14 -10 0 -12 -22 -9 -32 5 -4 6 -8 0 -8 -12 0 -12 4 -23 9 -25 4 -1
11 -12 15 -24 5 -16 0 -23 -21 -33 -19 -9 -29 -9 -31 -2 -5 16 -22 14 -22 -3
0 -7 -10 -25 -21 -40 -12 -15 -30 -48 -41 -74 -13 -34 -17 -39 -14 -17 3 17
10 62 16 100 6 39 17 109 25 156 7 47 23 106 35 132 22 47 99 127 122 127 10
0 10 -3 -1 -9z m84 -269 c-2 -26 -15 -44 -30 -38 -7 2 -18 -1 -24 -7 -8 -8
-11 -6 -11 10 0 22 25 39 35 23 4 -6 11 -10 16 -10 6 0 7 5 4 10 -3 6 -3 15 0
20 9 14 12 12 10 -8z m70 9 c3 -5 1 -12 -5 -16 -5 -3 -10 1 -10 9 0 18 6 21
15 7z m-148 -63 c-3 -7 -5 -2 -5 12 0 14 2 19 5 13 2 -7 2 -19 0 -25z m-25 -4
c-3 -19 -7 -22 -13 -12 -13 20 -11 38 5 38 9 0 12 -8 8 -26z m183 -30 c-38
-30 -61 -36 -32 -10 15 14 33 26 40 26 7 0 3 -8 -8 -16z m-91 -39 c-17 -26
-57 -34 -70 -13 -5 8 -2 9 9 5 10 -4 17 -1 17 6 0 9 3 8 9 -1 6 -10 10 -9 14
7 3 12 12 21 21 21 15 0 15 -2 0 -25z m124 -21 c-10 -10 -23 -14 -34 -10 -16
6 -16 8 -4 16 8 6 24 10 35 10 18 0 18 -1 3 -16z m55 -30 c2 -7 -10 -11 -68
-21 -27 -5 -29 -4 -15 11 8 8 25 17 37 19 12 2 26 7 30 11 7 6 11 2 16 -20z
m-273 -30 c0 -2 -7 -4 -15 -4 -8 0 -15 4 -15 10 0 5 7 7 15 4 8 -4 15 -8 15
-10z m161 7 c-11 -7 -11 -9 0 -14 8 -3 -11 -6 -41 -8 -30 -1 -45 -4 -32 -6 27
-5 26 -1 2 -54 -11 -24 -20 -54 -20 -66 0 -16 -4 -21 -15 -17 -8 4 -13 9 -11
13 3 4 -4 8 -15 8 -11 1 -17 -2 -14 -7 3 -6 -1 -7 -10 -3 -12 4 -13 8 -4 13 6
5 9 17 6 29 -3 11 1 25 9 32 8 6 14 17 14 23 0 6 -7 2 -15 -8 -8 -11 -15 -16
-15 -12 0 5 -7 3 -15 -4 -11 -9 -19 -10 -26 -3 -8 8 -6 11 7 10 10 -1 19 3 19
8 0 6 16 25 35 43 31 28 42 31 95 32 37 0 55 -4 46 -9z m-9 -59 c-7 -2 -10 -7
-8 -10 2 -4 -2 -13 -10 -20 -17 -15 -17 -12 -4 23 6 17 14 23 22 19 9 -6 9 -9
0 -12z m118 4 c0 -2 -8 -10 -17 -17 -16 -13 -17 -12 -4 4 13 16 21 21 21 13z
m-1 -43 c-40 -47 -42 -49 -34 -33 10 19 47 60 53 60 3 0 -5 -12 -19 -27z m-39
13 c0 -2 -17 -16 -37 -32 -24 -17 -32 -20 -20 -8 9 12 14 24 10 29 -5 4 -3 6
2 2 6 -3 17 -2 25 4 17 10 20 11 20 5z m731 -23 c-17 -32 -79 -85 -91 -78 -6
4 4 17 27 34 21 15 44 35 52 44 18 22 24 22 12 0z m-844 -25 c-3 -8 -6 -5 -6
6 -1 11 2 17 5 13 3 -3 4 -12 1 -19z m924 -36 c-14 -26 -40 -46 -48 -38 -4 4
6 18 22 31 36 29 38 30 26 7z m-826 -22 c-3 -5 -14 -10 -23 -9 -14 0 -13 2 3
9 27 11 27 11 20 0z m510 -140 c-3 -5 -12 -10 -18 -10 -7 0 -6 4 3 10 19 12
23 12 15 0z m401 -55 c-4 -11 2 -15 21 -15 47 0 11 -18 -69 -34 -104 -22 -111
-21 -96 4 12 18 13 19 20 2 6 -16 7 -16 7 1 1 17 28 32 86 47 17 4 32 8 34 9
2 1 1 -6 -3 -14z m-173 -2 c-13 -2 -23 -9 -23 -14 0 -5 -12 -9 -27 -10 -25 0
-26 -1 -8 -9 28 -12 32 -12 49 6 23 22 20 -3 -3 -27 -15 -16 -36 -22 -100 -26
-59 -4 -81 -3 -81 6 0 6 8 15 18 18 9 4 28 15 42 25 24 18 94 36 135 36 16 -1
16 -1 -2 -5z m-313 -67 c0 -2 -8 -10 -17 -17 -16 -13 -17 -12 -4 4 13 16 21
21 21 13z m-635 -43 c-11 -46 -54 -133 -65 -133 -6 0 -9 -4 -6 -9 3 -5 -2 -15
-11 -22 -15 -12 -16 -12 -10 4 4 10 7 23 7 28 0 5 7 9 15 9 8 0 15 8 15 18 0
14 -2 15 -10 2 -14 -22 -12 -1 5 45 7 22 18 39 22 38 5 -1 10 7 10 18 3 37
-25 2 -47 -59 -34 -94 -52 -132 -61 -126 -5 3 -9 1 -9 -5 0 -6 -6 -8 -13 -5
-8 3 -20 -3 -28 -13 -13 -17 -13 -17 5 -3 12 9 17 10 12 3 -4 -7 -16 -18 -28
-24 -15 -8 -19 -8 -14 0 4 6 3 11 -2 11 -17 0 -21 54 -6 71 13 15 12 17 -13
24 -27 8 -26 8 15 16 44 8 91 40 149 101 39 40 77 46 68 11z m512 9 c-24 -26
-21 -35 8 -28 34 9 49 -1 30 -20 -8 -8 -18 -22 -23 -30 -5 -8 -26 -19 -48 -24
-33 -7 -36 -7 -22 4 10 7 15 16 11 20 -3 3 -15 -1 -25 -11 -20 -18 -25 -12 -5
9 6 7 25 32 41 56 16 23 33 42 39 42 6 0 3 -8 -6 -18z m266 1 c-7 -2 -19 -2
-25 0 -7 3 -2 5 12 5 14 0 19 -2 13 -5z m437 -18 c-7 -8 -17 -15 -23 -15 -6 0
-2 7 9 15 25 19 30 19 14 0z m-942 -52 c-13 -21 -27 -46 -31 -56 -4 -10 -11
-15 -17 -12 -5 3 -10 1 -10 -4 0 -6 -5 -11 -11 -11 -8 0 -8 5 1 15 7 8 16 12
21 9 5 -3 9 3 9 14 0 10 11 32 25 48 14 16 25 33 25 38 0 5 3 6 6 3 4 -4 -4
-24 -18 -44z m711 31 c20 13 51 15 51 4 0 -5 -7 -8 -15 -4 -8 3 -15 1 -15 -4
0 -6 -5 -10 -12 -10 -7 0 -25 -12 -41 -27 -21 -21 -26 -23 -21 -9 7 17 4 17
-23 -4 -17 -12 -52 -25 -77 -27 -46 -6 -57 2 -34 25 8 8 8 12 1 12 -6 0 -18
-11 -27 -25 -17 -26 -56 -35 -56 -13 0 9 -3 9 -12 0 -17 -17 -29 -15 -22 3 4
8 12 15 20 15 8 0 13 5 12 11 -3 12 12 17 80 24 24 3 51 9 62 15 10 5 27 10
37 9 13 -1 11 -3 -7 -9 -15 -5 -18 -8 -8 -9 26 -2 49 10 41 22 -4 6 2 8 15 5
13 -4 22 -1 22 5 0 8 4 7 9 -2 5 -7 14 -10 20 -7z m96 -23 c-3 -6 -16 -11 -28
-11 -21 1 -21 1 3 15 27 14 36 13 25 -4z m-760 -21 c-3 -5 -20 -19 -38 -30
l-32 -22 33 31 c32 30 49 40 37 21z m743 0 c12 0 22 -4 22 -8 0 -11 -65 -42
-88 -42 -9 0 -36 -9 -59 -20 -24 -10 -43 -16 -43 -12 0 11 72 78 90 85 8 3 24
4 35 2 11 -3 30 -5 43 -5z m-391 -27 c-3 -3 -11 -2 -17 2 -9 6 -9 10 1 16 14
8 27 -7 16 -18z m253 0 c0 -11 -63 -73 -74 -73 -6 0 -5 5 2 12 20 20 13 32 -8
13 -11 -10 -20 -14 -20 -8 0 6 -21 10 -47 10 -27 0 -57 3 -68 7 -11 4 -8 0 8
-9 15 -8 27 -22 27 -30 0 -12 -5 -12 -27 -4 -39 14 -111 57 -119 70 -8 13 54
2 73 -13 7 -5 16 -7 22 -4 5 4 22 1 37 -6 20 -9 28 -10 31 -1 3 7 18 9 42 6
27 -4 47 1 72 16 36 22 49 26 49 14z m-540 -85 c0 -4 -9 -12 -20 -18 -11 -6
-20 -16 -20 -22 0 -6 10 -3 22 8 21 19 21 19 16 -3 -4 -13 -2 -23 3 -23 5 0 9
12 9 28 0 15 4 22 8 17 11 -16 50 -16 56 1 3 8 13 14 23 13 16 0 16 -1 -2 -9
-19 -8 -19 -9 3 -9 12 -1 21 -4 21 -8 -3 -21 2 -24 18 -12 15 13 15 12 3 -8
-8 -12 -19 -19 -25 -16 -5 3 -5 0 2 -7 7 -7 16 -9 25 -4 7 5 24 9 36 9 22 1
23 0 5 -13 -10 -7 -31 -11 -48 -9 -16 2 -39 1 -50 -4 -18 -7 -17 -8 7 -8 15
-1 29 -5 32 -10 8 -13 -18 -21 -35 -10 -26 17 -55 10 -67 -16 -14 -31 0 -33
21 -2 8 12 18 19 22 15 9 -9 -31 -45 -60 -54 -38 -11 -75 -29 -75 -35 0 -12
35 -5 43 9 4 6 16 12 25 12 12 0 10 -4 -8 -17 -14 -10 -31 -18 -39 -18 -8 0
-15 -8 -17 -19 -5 -35 -23 -41 -34 -12 -8 21 -15 27 -30 23 -11 -3 -18 -1 -14
4 8 14 25 11 46 -8 11 -10 18 -13 17 -8 -5 18 12 75 22 75 6 0 7 -6 3 -12 -4
-8 -3 -10 2 -5 5 5 7 9 5 10 -2 1 1 12 8 25 6 12 8 22 4 22 -15 0 -53 -44 -53
-62 0 -13 -8 -18 -27 -18 -30 0 -63 -25 -63 -49 0 -12 3 -12 12 -3 7 7 20 12
29 12 20 0 53 -46 39 -55 -6 -3 -14 5 -20 19 -10 28 -29 33 -48 14 -9 -9 -13
-8 -17 5 -9 22 11 55 48 77 l32 20 -27 0 c-17 0 -34 -10 -47 -26 -23 -29 -28
-25 -10 8 7 13 8 23 1 30 -7 7 -15 1 -26 -18 -8 -16 -15 -22 -16 -14 0 22 29
62 41 55 8 -6 13 8 10 28 0 4 8 7 20 7 16 0 19 4 14 20 -5 16 -3 19 11 13 11
-4 15 -3 10 5 -7 12 27 35 38 25 3 -3 6 -1 6 5 0 7 6 12 14 12 18 0 47 39 40
54 -3 6 2 2 10 -8 9 -11 16 -23 16 -28z m20 22 c0 -5 -2 -10 -4 -10 -3 0 -8 5
-11 10 -3 6 -1 10 4 10 6 0 11 -4 11 -10z m-199 -23 c-10 -9 -11 -8 -5 6 3 10
9 15 12 12 3 -3 0 -11 -7 -18z m-441 -4 c0 -10 -49 -33 -70 -33 -9 0 -24 6
-34 13 -16 12 -14 13 17 9 19 -2 44 1 54 7 22 12 33 14 33 4z m875 -15 c-19
-55 -26 -70 -30 -66 -6 5 22 78 30 78 2 0 2 -6 0 -12z m-65 -2 c0 -2 -7 -7
-16 -10 -8 -3 -12 -2 -9 4 6 10 25 14 25 6z m-727 -35 c-36 -58 -111 -150
-117 -144 -3 4 -6 2 -6 -3 0 -5 -10 -20 -21 -34 -18 -23 -18 -22 2 22 13 26
25 45 29 43 3 -2 12 6 20 18 12 20 12 21 -3 8 -10 -7 -17 -10 -17 -6 0 4 -11
0 -25 -9 -36 -24 -40 -19 -10 13 17 18 35 27 50 25 14 -1 26 4 30 13 3 9 8 13
12 10 3 -4 19 12 34 33 34 46 49 54 22 11z m136 -134 c6 -16 10 -47 10 -70
l-1 -42 -8 38 c-7 37 -40 85 -40 59 0 -7 4 -12 9 -12 5 0 11 -9 14 -20 6 -23
-8 -27 -17 -5 -3 8 -13 15 -23 15 -17 -1 -17 -1 0 -11 23 -13 24 -64 1 -55 -9
4 -22 2 -29 -4 -9 -7 -15 -2 -24 17 -10 22 -10 29 2 38 11 8 11 13 -6 30 -20
20 -20 20 -15 -7 3 -16 1 -28 -5 -28 -7 0 -7 -4 1 -12 7 -7 12 -22 12 -34 0
-12 4 -24 9 -26 4 -1 12 -14 16 -27 5 -16 4 -21 -4 -17 -7 4 -9 1 -5 -7 3 -8
1 -18 -4 -21 -6 -3 -18 14 -28 39 -10 26 -20 41 -24 35 -4 -6 -19 -18 -35 -26
-24 -12 -26 -12 -21 2 3 9 6 23 6 32 0 13 2 13 13 -3 11 -14 16 -15 22 -5 5 9
4 11 -3 6 -8 -5 -12 3 -12 25 0 31 1 32 15 13 12 -15 12 -11 -1 16 -15 30 -18
32 -23 15 -11 -37 -53 -100 -83 -124 l-29 -23 30 47 c16 26 33 60 36 76 4 16
11 27 15 24 5 -3 19 8 31 25 22 29 59 44 43 18 -5 -9 -3 -9 9 1 17 14 13 36
-5 25 -5 -3 -3 8 6 24 9 17 16 40 16 51 0 12 12 25 29 34 27 13 29 13 24 -2
-4 -9 6 -3 23 13 l29 28 7 -68 c3 -38 11 -82 17 -97z m28 100 c-6 -12 -16 -25
-22 -29 -6 -5 -6 -8 2 -8 6 0 18 6 26 14 20 20 59 24 64 6 3 -10 2 -11 -4 -4
-6 9 -11 8 -20 -2 -7 -7 -9 -15 -4 -19 6 -3 5 -20 -1 -43 -14 -51 -27 -62 -23
-18 3 34 -7 47 -20 26 -3 -5 -1 -10 5 -10 6 0 8 -5 5 -11 -12 -18 -38 31 -37
70 0 20 5 50 12 66 12 30 12 30 21 7 6 -15 4 -30 -4 -45z m-237 33 c0 -11 -6
-20 -14 -20 -7 0 -19 -7 -26 -15 -14 -17 -56 -20 -65 -5 -3 6 0 10 8 10 7 0
24 11 37 25 29 31 60 33 60 5z m1159 -1 c17 -6 31 -15 31 -21 0 -6 -6 -8 -14
-5 -8 3 -31 9 -51 13 -26 5 -33 9 -23 15 17 11 19 11 57 -2z m-288 -22 c-10
-9 -11 -8 -5 6 3 10 9 15 12 12 3 -3 0 -11 -7 -18z m-54 -20 c-3 -8 -58 -51
-121 -97 -64 -45 -128 -97 -143 -116 -27 -36 -42 -40 -25 -7 5 10 16 31 23 46
7 16 22 33 34 39 11 6 42 33 69 60 27 26 51 46 54 43 9 -9 42 16 36 27 -5 7
-2 9 7 6 8 -3 26 0 39 7 28 15 35 13 27 -8z m-448 -56 c-6 -18 -13 -30 -15
-28 -2 2 1 18 7 36 6 18 13 30 15 28 2 -2 -1 -18 -7 -36z m891 -16 l25 -14
-32 1 c-18 1 -34 7 -37 15 -7 17 12 16 44 -2z m-64 -31 c27 -14 53 -30 59 -35
5 -5 20 -9 35 -9 22 -1 19 -4 -20 -25 -44 -23 -70 -32 -57 -18 8 7 -21 43 -35
43 -4 0 -8 -4 -8 -10 0 -5 6 -10 14 -10 8 0 18 -5 22 -12 5 -8 1 -9 -12 -5
-18 7 -18 6 -1 -7 17 -13 14 -16 -36 -43 -46 -25 -54 -27 -49 -11 2 10 9 15
16 11 6 -4 -5 11 -24 33 -26 29 -35 47 -34 69 1 17 3 36 3 43 2 21 75 14 127
-14z m269 -84 c3 -5 -1 -10 -10 -10 -9 0 -13 5 -10 10 3 6 8 10 10 10 2 0 7
-4 10 -10z m-832 -24 c4 -10 1 -13 -9 -9 -15 6 -19 23 -5 23 5 0 11 -7 14 -14z
m609 -3 c-6 -2 -10 -8 -8 -12 3 -4 -1 -8 -9 -8 -11 0 -12 4 -4 14 6 7 17 13
23 12 7 0 6 -2 -2 -6z m-1037 -24 c11 -17 -1 -21 -15 -4 -8 9 -8 15 -2 15 6 0
14 -5 17 -11z m985 -4 c-12 -14 -10 -15 12 -11 31 5 58 -8 34 -17 -17 -7 -22
-37 -6 -37 20 0 9 -18 -14 -24 -13 -3 -32 -9 -43 -13 -16 -6 -16 -4 3 18 12
13 24 32 27 42 8 21 -11 23 -19 2 -4 -8 -16 -15 -28 -15 -21 1 -21 1 -1 16 16
12 17 16 6 23 -11 7 -10 11 5 20 27 15 38 13 24 -4z m-1166 -110 c4 -58 -10
-39 -20 26 -5 33 -4 41 5 33 6 -5 13 -32 15 -59z m1146 41 c0 -3 -4 -8 -10
-11 -5 -3 -10 -1 -10 4 0 6 5 11 10 11 6 0 10 -2 10 -4z m40 -46 c-20 -13 -33
-13 -25 0 3 6 14 10 23 10 15 0 15 -2 2 -10z m50 -14 c0 -8 4 -18 10 -21 6 -3
7 1 4 9 -3 9 -1 16 5 16 6 0 11 -4 11 -10 0 -5 3 -9 8 -8 23 4 38 -16 41 -54
3 -53 8 -60 31 -48 40 21 9 -15 -35 -42 -47 -28 -56 -27 -28 4 9 10 11 18 5
18 -6 0 -13 8 -16 18 -6 19 -36 27 -36 10 0 -15 -27 16 -34 39 -4 14 -2 23 9
27 23 8 18 26 -7 27 -17 1 -19 2 -5 6 9 2 17 9 17 14 0 5 5 9 10 9 6 0 10 -6
10 -14z m340 -15 c-5 -11 -15 -23 -21 -27 -6 -3 -3 5 6 20 20 30 30 35 15 7z
m-200 -1 c0 -5 -4 -10 -10 -10 -5 0 -10 5 -10 10 0 6 5 10 10 10 6 0 10 -4 10
-10z m15 -40 c-3 -4 0 -10 5 -12 7 -2 5 -11 -5 -23 -14 -19 -15 -18 -13 17 1
20 6 34 10 32 5 -3 6 -9 3 -14z m154 -3 c-2 -1 -15 -11 -29 -22 l-25 -20 19
23 c11 12 24 22 29 22 6 0 8 -1 6 -3z m-1518 -21 c5 3 9 1 9 -5 0 -5 -5 -13
-11 -16 -6 -4 -8 -14 -5 -22 3 -8 1 -11 -4 -8 -6 3 -10 21 -9 38 0 18 3 26 6
19 2 -6 9 -10 14 -6z m1419 -50 c0 -2 -12 -11 -27 -20 l-28 -17 24 20 c23 21
31 25 31 17z m-1460 -100 c7 -7 10 -2 10 16 0 14 7 31 15 38 13 11 15 5 15
-43 0 -30 3 -64 7 -74 3 -10 3 -15 -2 -11 -10 10 -34 -21 -35 -44 0 -11 -5
-15 -14 -12 -8 3 -21 -5 -31 -18 l-16 -23 6 25 c3 14 7 63 9 110 6 133 7 140
17 91 5 -25 13 -49 19 -55z m1344 48 c15 -14 17 -14 32 1 9 9 19 13 22 10 4
-3 1 -10 -6 -14 -7 -4 -10 -14 -7 -22 3 -8 -7 -27 -21 -44 -14 -16 -23 -24
-19 -17 4 7 0 12 -9 12 -18 0 -21 16 -5 25 7 5 5 13 -6 25 -9 10 -14 24 -10
29 8 14 11 14 29 -5z m-986 -58 c22 -24 18 -23 -23 9 -68 53 -76 61 -37 39 18
-10 45 -32 60 -48z m-218 10 c0 -12 -5 -7 -19 24 -11 24 -11 24 3 6 9 -11 16
-24 16 -30z m620 -21 c-7 -8 -17 -15 -23 -15 -6 0 -2 7 9 15 25 19 30 19 14 0z
m-610 -30 c0 -5 -5 -3 -10 5 -5 8 -10 20 -10 25 0 6 5 3 10 -5 5 -8 10 -19 10
-25z m1707 13 c-3 -8 -6 -5 -6 6 -1 11 2 17 5 13 3 -3 4 -12 1 -19z m-47 -15
c17 -22 23 -25 30 -13 6 8 10 10 10 4 0 -7 -9 -22 -21 -35 -18 -22 -20 -22
-15 -4 6 22 -9 46 -39 63 -17 9 -17 11 -3 12 9 0 26 -12 38 -27z m-171 14 c-2
-1 -13 -9 -24 -17 -19 -14 -19 -14 -6 3 7 9 18 17 24 17 6 0 8 -1 6 -3z m-896
-22 c-3 -9 -8 -14 -10 -11 -3 3 -2 9 2 15 9 16 15 13 8 -4z m842 -13 c-41 -35
-98 -74 -90 -62 11 18 52 52 74 62 22 9 27 9 16 0z m6 -55 c-10 -9 -11 -8 -5
6 3 10 9 15 12 12 3 -3 0 -11 -7 -18z m-1575 -35 c-4 -3 -14 2 -24 12 -16 18
-16 18 6 6 13 -6 21 -14 18 -18z m534 20 c0 -4 -10 -13 -22 -21 -23 -14 -23
-14 -4 8 20 22 26 25 26 13z m977 -14 c-9 -7 -23 -22 -31 -33 -9 -11 -16 -14
-16 -7 0 15 36 52 52 52 7 0 4 -6 -5 -12z m-1563 -94 c3 -8 2 -12 -4 -9 -6 3
-10 10 -10 16 0 14 7 11 14 -7z"/>
<path d="M495 1840 c-3 -5 -1 -10 4 -10 6 0 11 5 11 10 0 6 -2 10 -4 10 -3 0
-8 -4 -11 -10z"/>
<path d="M1380 1229 c0 -5 5 -7 10 -4 6 3 10 8 10 11 0 2 -4 4 -10 4 -5 0 -10
-5 -10 -11z"/>
<path d="M1050 1145 c-7 -9 -11 -18 -8 -20 3 -3 11 1 18 10 7 9 11 18 8 20 -3
3 -11 -1 -18 -10z"/>
<path d="M1074 1126 c-10 -8 -16 -17 -13 -20 3 -3 14 3 24 14 21 23 17 26 -11
6z"/>
<path d="M1321 1087 c-13 -21 -12 -21 5 -5 10 10 16 20 13 22 -3 3 -11 -5 -18
-17z"/>
<path d="M1580 1080 c-9 -6 -10 -10 -3 -10 6 0 15 5 18 10 8 12 4 12 -15 0z"/>
<path d="M1006 944 c-5 -14 -4 -15 9 -4 17 14 19 20 6 20 -5 0 -12 -7 -15 -16z"/>
<path d="M857 890 c-29 -27 -49 -50 -46 -50 3 0 24 17 46 38 22 20 49 42 59
49 12 7 14 12 6 12 -8 1 -37 -21 -65 -49z"/>
<path d="M964 919 c-10 -17 7 -31 21 -19 8 7 19 9 25 5 5 -3 10 -2 10 3 0 13
-49 22 -56 11z"/>
<path d="M812 889 c-13 -5 -20 -14 -17 -20 5 -7 13 -4 26 7 10 9 19 19 19 21
0 4 0 4 -28 -8z"/>
<path d="M506 925 c-3 -9 -6 -22 -5 -28 0 -7 5 -1 10 12 5 13 8 26 5 28 -2 2
-6 -3 -10 -12z"/>
<path d="M476 885 c-9 -26 -7 -32 5 -12 6 10 9 21 6 23 -2 3 -7 -2 -11 -11z"/>
<path d="M493 828 c-25 -33 -25 -40 0 -22 27 19 34 34 18 34 -5 0 -13 -6 -18
-12z"/>
<path d="M466 743 c-14 -14 -5 -31 14 -26 11 3 20 9 20 13 0 10 -26 20 -34 13z"/>
<path d="M350 271 c0 -6 4 -13 10 -16 6 -3 7 1 4 9 -7 18 -14 21 -14 7z"/>
<path d="M335 225 c2 -16 4 -33 4 -37 2 -15 16 -8 30 15 10 17 11 19 0 10 -11
-11 -15 -8 -26 15 l-12 27 4 -30z"/>
<path d="M1716 295 c-11 -8 -15 -15 -9 -15 6 0 16 7 23 15 16 19 11 19 -14 0z"/>
</g>
</svg>
